<?xml version="1.0" standalone="no"?><!DOCTYPE svg PUBLIC "-//W3C//DTD SVG 1.1//EN" "http://www.w3.org/Graphics/SVG/1.1/DTD/svg11.dtd"><svg t="1588605533820" class="icon" viewBox="0 0 1024 1024" version="1.1" xmlns="http://www.w3.org/2000/svg" p-id="2130" xmlns:xlink="http://www.w3.org/1999/xlink" width="128" height="128"><defs><style type="text/css"></style></defs><path d="M517.717333 41.685333a1022.848 1022.848 0 0 0 201.002667 96.682667c61.226667 21.546667 124.373333 36.992 188.544 46.762667a1039.957333 1039.957333 0 0 1-4.693333 107.946666 982.272 982.272 0 0 1-30.549334 165.12A988.330667 988.330667 0 0 1 566.613333 941.653333c-17.706667 15.36-35.968 30.037333-54.656 44.16a1040.085333 1040.085333 0 0 1-70.4-58.112 987.648 987.648 0 0 1-295.125333-490.453333 984.746667 984.746667 0 0 1-29.738667-252.032 1036.501333 1036.501333 0 0 0 207.445334-53.589333A1039.786667 1039.786667 0 0 0 506.624 41.685333l5.546667-3.456 5.546666 3.413334z m-6.954666 72.192a1106.602667 1106.602667 0 0 1-170.752 80.128c-51.2 18.773333-103.722667 33.493333-157.141334 44.544l-1.194666 0.213334a921.728 921.728 0 0 0 33.834666 208.938666 922.666667 922.666667 0 0 0 165.717334 322.474667 950.101333 950.101333 0 0 0 123.008 127.445333l5.034666 4.266667 2.730667 2.261333a947.797333 947.797333 0 0 0 134.826667-139.093333 923.733333 923.733333 0 0 0 159.829333-310.869333 916.224 916.224 0 0 0 35.669333-215.466667c-7.424-1.493333-14.805333-3.157333-22.186666-4.778667A1106.773333 1106.773333 0 0 1 657.92 183.893333a1109.632 1109.632 0 0 1-144.298667-70.016l-1.408-0.853333a67.541333 67.541333 0 0 0-1.450666 0.853333z" p-id="2131"></path><path d="M555.093333 411.264c0.426667-19.584 0.426667-39.125333 0.426667-58.709333a26.453333 26.453333 0 0 1 1.706667-9.898667 32.512 32.512 0 0 1 18.346666-19.84c3.413333-1.28 6.826667-1.877333 9.813334-2.176 2.133333-0.085333 2.133333-0.085333 4.266666 0 3.413333 0.298667 6.4 0.896 9.813334 2.176 8.106667 3.2 14.506667 9.813333 17.92 17.962667 1.28 3.157333 1.706667 6.4 2.133333 9.770666l1.28 61.653334c18.346667 0.384 36.693333 0.853333 55.04 1.408 6.826667 0.64 13.226667 2.901333 18.346667 7.296 2.986667 2.133333 5.12 4.693333 6.826666 7.509333 7.253333 11.562667 6.4 26.965333-2.56 37.546667a31.872 31.872 0 0 1-8.96 7.637333 35.285333 35.285333 0 0 1-13.653333 3.882667c-18.346667 0.597333-36.693333 0.981333-55.04 1.194666 0 22.186667 0 44.373333-0.426667 66.56 19.2 0.384 38.4 0.896 57.6 1.493334 6.826667 0.64 13.226667 2.901333 18.346667 7.296 2.986667 2.133333 5.12 4.650667 6.826667 7.509333 7.253333 11.562667 6.4 26.965333-2.133334 37.546667a35.157333 35.157333 0 0 1-9.386666 7.637333c-4.266667 2.304-8.96 3.413333-13.653334 3.882667-19.2 0.597333-38.826667 0.981333-58.026666 1.237333-0.426667 19.072-0.426667 38.186667-0.426667 57.258667a32.853333 32.853333 0 0 1-5.973333 18.816 32.341333 32.341333 0 0 1-46.506667 5.845333 38.4 38.4 0 0 1-7.68-9.216 36.650667 36.650667 0 0 1-3.84-13.44l-1.28-59.008c-27.733333-0.085333-55.893333-0.384-84.053333-0.64v57.898667a36.608 36.608 0 0 1-5.973334 18.816 32.469333 32.469333 0 0 1-46.506666 5.845333 37.802667 37.802667 0 0 1-7.68-9.258667 36.437333 36.437333 0 0 1-3.84-13.397333c-0.853333-20.181333-0.853333-40.362667-1.28-60.544-14.933333-0.085333-30.293333-0.170667-45.226667-0.170667a32.853333 32.853333 0 0 1-18.773333-6.101333 32.256 32.256 0 0 1-11.093334-37.674667 33.834667 33.834667 0 0 1 5.12-8.618666 29.568 29.568 0 0 1 9.386667-7.637334c3.84-2.304 8.533333-3.456 13.226667-3.882666 15.786667-0.512 31.573333-0.938667 47.36-1.28 0-22.570667 0-45.141333 0.426666-67.712-16.213333-0.085333-32-0.170667-47.786666-0.170667a32.64 32.64 0 0 1-23.466667-10.112 32.469333 32.469333 0 0 1-3.84-39.04c2.133333-2.816 4.266667-5.376 6.826667-7.509333a32.298667 32.298667 0 0 1 18.346666-7.296c16.64-0.512 33.706667-0.981333 50.346667-1.322667 0.426667-19.84 0.426667-39.68 0.426667-59.477333a38.4 38.4 0 0 1 1.28-9.898667 33.365333 33.365333 0 0 1 18.773333-19.882667 36.906667 36.906667 0 0 1 9.813333-2.176c2.133333-0.085333 2.133333-0.042667 4.266667 0a32.341333 32.341333 0 0 1 27.733333 20.138667c0.853333 3.157333 1.706667 6.4 2.133334 9.770667l1.28 60.544c27.733333-0.256 55.893333-0.256 83.626666-0.042667z m-83.626666 67.114667c0 22.016-0.426667 44.032-0.426667 66.048 27.733333-0.256 55.466667-0.298667 83.2-0.085334 0-21.802667 0-43.562667 0.426667-65.365333a13521.066667 13521.066667 0 0 1-83.2-0.597333z" p-id="2132"></path></svg>