<?xml version="1.0" standalone="no"?><!DOCTYPE svg PUBLIC "-//W3C//DTD SVG 1.1//EN" "http://www.w3.org/Graphics/SVG/1.1/DTD/svg11.dtd"><svg t="1588605324470" class="icon" viewBox="0 0 1024 1024" version="1.1" xmlns="http://www.w3.org/2000/svg" p-id="1444" xmlns:xlink="http://www.w3.org/1999/xlink" width="64" height="64"><defs><style type="text/css"></style></defs><path d="M927.38048 180.3264c-39.45472-20.44928-240.83968-114.52416-412.86656-6.42048-172.032-108.10368-373.41184-14.0288-412.86656 6.41536a44.544 44.544 0 0 0-24.1408 39.71072v476.50304a44.86656 44.86656 0 0 0 63.16032 40.90368c49.152-21.94432 181.10976-65.73056 343.76704 1.536a44.96384 44.96384 0 0 0 30.07488 1.536 44.9536 44.9536 0 0 0 30.08512-1.536c162.64192-67.2256 294.59456-23.45984 343.77216-1.5104a44.8768 44.8768 0 0 0 63.16032-40.9088V220.032a44.544 44.544 0 0 0-24.14592-39.7056z m-785.82784 487.936V231.84384c50.52416-24.13568 209.0496-87.18336 340.93568-2.67264v440.59136a516.2752 516.2752 0 0 0-173.83424-30.55616 491.78624 491.78624 0 0 0-167.10144 29.03552z m745.91744 0c-66.21184-24.064-191.24224-51.712-340.93568 1.536V229.17632c131.8912-84.52096 290.41152-21.46816 340.93568 2.67264v436.39296z" fill="#4A4A4A" p-id="1445"></path><path d="M930.49344 911.67744a32.01024 32.01024 0 0 1-18.432-5.8368c-121.03168-84.992-295.81824-44.23168-362.496-3.49184a44.84608 44.84608 0 0 1-50.23744-2.40128c-172.032-127.15008-374.68672 1.024-383.232 6.5536a32.15872 32.15872 0 0 1-44.288-9.28256 31.744 31.744 0 0 1 9.25696-44.032c9.87648-6.4256 240.54272-153.36448 446.28992-11.61728 96.0256-52.15744 286.7968-82.46784 421.6576 12.25216a31.83104 31.83104 0 0 1-18.51904 57.856z" fill="#FF7214" p-id="1446"></path></svg>